<?xml version="1.0" encoding="utf-8"?>
<!-- Generator: Adobe Illustrator 21.0.0, SVG Export Plug-In . SVG Version: 6.00 Build 0)  -->
<svg version="1.1" id="Camada_1" xmlns="http://www.w3.org/2000/svg" xmlns:xlink="http://www.w3.org/1999/xlink" x="0px" y="0px"
	 viewBox="0 0 595.3 841.9" style="enable-background:new 0 0 595.3 841.9;" xml:space="preserve">
<style type="text/css">
	.st0{fill:none;}
	.st1{fill:#7EB5A3;}
	.st2{fill:#5F6C7A;}
	.st3{fill:#A5CBC0;}
</style>
<g>
	<polygon class="st0" points="195.1,358.9 214.2,339.7 199,324.4 179.7,343.6 	"/>
	<path class="st0" d="M145.3,393.3c4.1,4.1,10.7,4.3,15,0.5l0,0l-15.5-15.5C141.1,382.6,141.1,389.2,145.3,393.3z"/>
	<path class="st0" d="M233.9,289.8l15.1,15.1l3.7-3.7l15.5-15.5l-19.8-19.8c-0.2,6.9-3.2,13-7.9,17.3L233.9,289.8z"/>
	<polygon class="st0" points="411,359 426.4,343.5 407.1,324.4 391.8,339.7 407.2,355.1 407.1,355.1 	"/>
	<path class="st0" d="M353,270.5l-15.2,15.2l5.4,5.4l13.8,13.8l15.2-15.2l-0.8-0.8l-15.9-15.8C354.6,272.4,353.8,271.4,353,270.5z"
		/>
	<path class="st1" d="M93,364.8l104.6,104.7c-0.3-0.8-0.8-1.6-1.1-2.4c-2-5.7-3.1-11.8-3.1-18.2c0-6.6,1.2-12.8,3.4-18.7l-36.5-36.4
		l0,0c-4.3,3.8-10.9,3.7-15-0.5c-4.1-4.1-4.2-10.7-0.4-15L111,344.4l-3.3,3.3l0,0l-0.3,0.3C102.1,353.4,97.4,359,93,364.8z"/>
	<path class="st1" d="M26,557.9l139.3,139.3l20-20l12.4-12.4c8.5-5.9,18.5-8.9,28.5-8.8c0.8,0,1.6,0.1,2.3,0.1
		c8.5,0.3,17-0.1,25.4-1.3c18.8-2.7,37.1-9.2,53.8-19.6c-12-5-23.4-11.7-33.8-20.2l-0.2,0.2l-3-3c-2.6-2.2-5.1-4.5-7.6-7
		c-2.4-2.4-4.7-5-7-7.5l-63-63l0.1-0.1L68.4,409.9c-6.2,17.3-9.6,35.3-10,53.4c-0.1,7,0.1,13.9,0.9,20.8c0.7,6.2,1.7,12.4,3,18.5
		c-0.4,12.1-5.1,24.1-14.4,33.3L26,557.9z"/>
	<polygon class="st1" points="179.7,343.6 199,324.4 165.2,290.6 145.9,309.8 	"/>
	<path class="st1" d="M528,349.9l-0.2,0.2l-0.2,0.2l-16.3,16.3c9.7,15.2,16.6,31.7,20.9,48.7l28.7-28.7l1.7-1.6l1.6-1.8
		c8-9.7,7.5-24.1-1.6-33.1C553.2,340.5,537.7,340.4,528,349.9z"/>
	<path class="st1" d="M488.5,338c2.2,2.2,4.1,4.5,6.2,6.8l39.6-39.6l0.9-0.8l0.8-0.9c4.1-4.5,6.3-10.2,6.4-15.9
		c0.2-6.5-2.2-13-7.2-18c-4.9-5-11.5-7.3-18-7.2c-6.1,0.1-12.2,2.5-16.8,7.2l-0.8,0.9l-0.1-0.1l-39.4,39.4l28.1,27.9l-0.1,0
		L488.5,338z"/>
	<path class="st1" d="M426.4,343.5L411,359l23.7,23.7l1,1c4.3,3.8,10.9,3.7,15-0.5c4.3-4.2,4.3-11.1,0.1-15.4l-0.3-0.3L426.4,343.5z
		"/>
	<path class="st1" d="M371.4,231.4c5.8,0,11.1,2.1,15.2,5.6l39.3-39.3l0.9-0.8l0.8-0.9c4.3-4.7,6.5-10.7,6.4-16.7
		c-0.1-6.2-2.5-12.5-7.2-17.2c-4.8-4.8-11-7.2-17.2-7.2c-6.2-0.1-12.4,2.2-17.2,6.8l-0.4,0.4l-0.4,0.4L303,250.9l34.8,34.8
		l15.2-15.2c-3.4-4.1-5.5-9.3-5.6-15.1C347.4,242.2,358.1,231.4,371.4,231.4z"/>
	<path class="st1" d="M457.9,203.9l-0.7,0.9L406,256l34.9,34.7l51.2-51.2l0.6-0.6c9.6-9.6,9.6-25.2,0-34.9
		C483.1,194.3,467.5,194.3,457.9,203.9z"/>
	<path class="st1" d="M206.9,249.3l-6.8,6.7l33.8,33.8l6.6-6.6c4.8-4.3,7.8-10.4,7.9-17.3l-24.4-24.4c-6.5,0.2-12.4,2.9-16.6,7.2
		L206.9,249.3z"/>
	<path class="st1" d="M249,304.9l18.8,18.8c7.4-5.7,15.2-10.8,23.3-15.1l-22.9-22.9l-15.5,15.5L249,304.9z"/>
	<path class="st1" d="M219.4,383.3c4-8.3,8.8-16.4,14.3-24.1l-19.5-19.5l-19.2,19.2L219.4,383.3z"/>
	<polygon class="st1" points="391.8,339.7 407.1,324.4 372.2,289.7 357,304.9 	"/>
	<path class="st2" d="M256.1,597.8c2.2,2.6,4.5,5.1,7,7.5c2.5,2.4,5,4.7,7.6,7l3,3l0.2-0.2c10.5,8.5,21.9,15.2,33.8,20.2
		c11.1,4.6,22.6,7.8,34.3,9.5c8.4,1.2,16.9,1.7,25.4,1.3c0.8,0,1.6-0.1,2.3-0.1c10-0.1,19.9,2.8,28.5,8.8l12.4,12.4l20,20L570,547.9
		l-22-22c-9.2-9.2-14-21.2-14.3-33.3c1.3-6.1,2.4-12.3,3-18.5c0.7-6.9,1-13.9,0.9-20.8c-0.2-12.8-2.1-25.5-5.2-38
		c-4.3-17-11.2-33.4-20.9-48.7c-4.8-7.6-10.4-14.9-16.6-21.8c-2.1-2.3-4-4.6-6.2-6.8l-0.3-0.3l0.1,0l-28.1-27.9l-19.3-19.1L406,256
		l-16.9-16.7l-0.6-0.6c-0.6-0.6-1.3-1.1-2-1.7c-4.2-3.4-9.4-5.6-15.2-5.6c-13.2,0-23.9,10.8-23.9,24c0,5.8,2.2,11,5.6,15.1
		c0.8,0.9,1.5,1.9,2.4,2.7l15.9,15.8l0.8,0.8l34.9,34.7l19.3,19.1l24.2,24l0.3,0.3c4.2,4.3,4.1,11.2-0.1,15.4
		c-4.1,4.1-10.7,4.3-15,0.5l-1-1L411,359l-3.8-3.8l0.1-0.1l-15.4-15.4L357,304.9l-13.8-13.8l-5.4-5.4L303,250.9l-98.5-98.5l-0.4-0.4
		l-0.4-0.4c-4.8-4.6-11-6.9-17.2-6.8c-6.2,0-12.5,2.4-17.2,7.2c-4.8,4.8-7.2,11-7.2,17.2c0,6,2.1,12,6.4,16.7l0.8,0.9l0.9,0.8
		l53.9,53.9l24.4,24.4l19.8,19.8l22.9,22.9c-8.1,4.3-15.9,9.4-23.3,15.1L249,304.9l-15.1-15.1L200.1,256l-61.3-61.3l-0.7-0.9
		c-9.6-9.6-25.2-9.6-34.9,0c-9.6,9.6-9.6,25.2,0,34.9l0.7,0.6l61.3,61.3l33.8,33.8l15.2,15.2l19.5,19.5
		c-5.5,7.7-10.3,15.8-14.3,24.1l-24.4-24.4l-15.3-15.3l-33.8-33.8l-49.5-49.5l-0.1,0.1l-0.8-0.9c-4.7-4.7-10.7-7-16.8-7.2
		c-6.5-0.2-13,2.2-18,7.2c-4.9,4.9-7.3,11.5-7.2,18c0.1,5.7,2.3,11.4,6.4,15.9l0.8,0.9l0.9,0.8l49.3,49.3l33.9,33.9l15.5,15.5
		l36.5,36.4c7.7-21,27.8-36,51.4-36c22.2,0,41.3,13.2,49.9,32.2c8.6-18.9,27.7-32.2,49.8-32.2c30.2,0,54.7,24.6,54.7,54.7
		c0,6.5-1.1,12.8-3.2,18.6c-2.7,7.6-7.1,14.4-12.8,20.1v0l-86.6,86l-1.9,0.8l-1.9-0.8l-83.5-82.9c-2.2-1.9-4.2-3.9-6.1-6.1
		c-3.8-4.5-6.8-9.6-9.1-15.1L93,364.8l-24.7-24.7l-0.2-0.2l-0.2-0.2c-9.6-9.5-25.1-9.4-34.7,0.2c-9.1,9.1-9.6,23.4-1.6,33.1l1.6,1.8
		l1.7,1.6l33.4,33.4l124.8,124.8l-0.1,0.1L256.1,597.8z"/>
	<path class="st3" d="M298,426.3c-8.6-18.9-27.7-32.2-49.9-32.2c-23.6,0-43.7,15.1-51.4,36c-2.1,5.9-3.4,12.1-3.4,18.7
		c0,6.4,1.1,12.5,3.1,18.2c0.3,0.9,0.8,1.6,1.1,2.4c2.3,5.5,5.2,10.7,9.1,15.1c1.9,2.2,3.9,4.2,6.1,6.1l83.5,82.9l1.9,0.8l1.9-0.8
		l86.6-86v0c5.6-5.6,10-12.5,12.8-20.1c2.1-5.8,3.2-12.1,3.2-18.6c0-30.2-24.6-54.7-54.7-54.7C325.7,394.2,306.6,407.4,298,426.3z"
		/>
</g>
</svg>
