<?xml version="1.0" encoding="utf-8"?>
<!-- Generator: Adobe Illustrator 21.0.0, SVG Export Plug-In . SVG Version: 6.00 Build 0)  -->
<svg version="1.1" id="Camada_1" xmlns="http://www.w3.org/2000/svg" xmlns:xlink="http://www.w3.org/1999/xlink" x="0px" y="0px"
	 viewBox="0 0 595.3 841.9" style="enable-background:new 0 0 595.3 841.9;" xml:space="preserve">
<style type="text/css">
	.st0{fill:#F6E9DA;}
	.st1{fill:#A2C599;}
	.st2{fill:#486CAC;}
	.st3{fill:#678EC6;}
	.st4{fill:#CD6620;}
	.st5{fill:#DC9B53;}
	.st6{fill:#BE5C1D;}
	.st7{fill:#7DAB74;}
	.st8{fill:#E2AE78;}
	.st9{fill:#D8905F;}
	.st10{fill:#2A4484;}
	.st11{fill:#22375F;}
	.st12{fill:#1E3B6C;}
	.st13{fill:#E0A780;}
	.st14{fill:#2B3861;}
	.st15{fill:#4878B6;}
	.st16{fill:#A1453C;}
	.st17{fill:#D9914E;}
	.st18{fill:#D4813F;}
	.st19{fill:#2A4B8D;}
	.st20{fill:#334684;}
	.st21{fill:#406AAC;}
</style>
<g>
	<g>
		<path class="st0" d="M-775.4,1096.5c0,0-282.7-602,274.5-602c294.4,0,173.1-165.2,373.2-356.3C72.4-53,772.3-205.7,921.3,163.4
			c149,369.1-219.2,649.4,136.6,601.3c427.5-57.8,596.4,331.8,596.4,331.8H-775.4z"/>
		<path class="st1" d="M1514.1,1020.1c-26.4-19.3-80.3-6.3-120.1,7.7c-5.9-8.4-13.2-17-21.9-25.4c85.7-55.2,204.1-173,141.3-182.9
			c-54.5-8.7-128.1,97.3-167.5,161.8c-40.8-27.5-103.4-47.7-199-40.7c-248,18.2-441.8-141.8-584.6-88.4
			c-113.6,42.4-217.6,66.2-318,58.1c4.3-73.3,5.3-217.3-52.3-232.2c-58.4-15.2-1.1,148.3,30.7,229.9c-7.5-1-14.9-2.1-22.4-3.4
			c-20.6-40.7-54.6-93.9-92-95.7c-35.2-1.7,8.2,46.2,50.9,86.7c-122.7-25.8-268.3,74-270.7,192H1421c0,0-2.7-17.2-14.7-39.9
			C1465.5,1046.4,1542.7,1041,1514.1,1020.1z"/>
		<g>
			<g>
				<rect x="-180.9" y="996.3" class="st2" width="403.8" height="91.2"/>
				<rect x="-305.4" y="996.3" class="st3" width="403.8" height="91.2"/>
			</g>
		</g>
		<g>
			<g>
				<g>
					
						<rect x="381.8" y="667.2" transform="matrix(-1 -1.224647e-16 1.224647e-16 -1 1064.377 1754.6494)" class="st4" width="300.7" height="420.3"/>
					
						<rect x="289.1" y="667.2" transform="matrix(-1 -1.224647e-16 1.224647e-16 -1 878.9384 1754.6494)" class="st5" width="300.7" height="420.3"/>
				</g>
			</g>
			<polygon class="st6" points="589.8,667.2 682.5,730.3 682.5,667.2 			"/>
		</g>
		<g>
			<path class="st7" d="M-338.4,760.3c0,0-56.2,41.8-67.2,39.3c-11-2.5,41.1-45.1,41.1-45.1c-19.6-9.4-80.5-3.5-80.5-3.5
				s-20.3,65.4-30.3,60.3c-10-5.2,20.9-57,20.9-57C-476.2,752.8-503,769-503,769c-36.6,28.9,2.4,74.5,2.4,74.5s-7.5,22.5-30.7,43
				c0,0-33,24.4-35.3,68.1l6,0.5c0,0,9.5-40.7,26.8-59.9c0.7-0.7,1.6-1.7,2.9-2.9c2.8-2.6,4.8-4.6,6.1-6
				c8.6-8.3,20.5-18.8,26.2-19.8c0,0-0.3-1.1-0.2-2.9c0.1,0.9,0.2,1.9,0.2,2.9c2,23,46.6,43.1,74.1,47.3c27.5,4.1,19-7.2,9.5-23.9
				c-9.5-16.7-39.4-24.2-46.3-32c-6.8-7.7,7.3-7.7,23.9-0.2c16.6,7.6,18.8,27.7,45.4,40.4c26.6,12.7,66.5-31.4,66.5-31.4
				c-21.2-1.1-51.4-24.1-50.3-31.1c1.1-7,51.3,12.1,59.9,13.1c8.6,0.9,28.1-9.8,31.1-44.3C-281.8,769.9-338.4,760.3-338.4,760.3z"/>
			<g>
				<path class="st1" d="M-637.1,786.2c0,0,62.1-34.8,33.1-82c0,0-23.2-29-48-36.4c0,0,13.3,70.4,0,72.1
					c-13.3,1.7-9.1-79.5-9.1-79.5s-65.4-31.5-91.1-29c0,0,40.6,68.7,27.3,67.1c-13.3-1.7-58.8-71.2-58.8-71.2s-67.1-12.4-77.8,27.3
					c-10.8,39.8,6.6,59.6,16.6,62.1c9.9,2.5,73.7,1.7,72.1,9.9c-1.7,8.3-44.7,21.5-68.7,14.1c0,0,26.5,65.4,61.3,62.1
					c34.8-3.3,45.5-24.8,67.1-26.5c21.5-1.7,37.3,4.1,26.5,9.9c-10.8,5.8-47.2,1.9-64.6,16.7c-17.4,14.8-31.5,23.9,0.8,30.5
					c32.3,6.6,90.3,2.5,101.9-22.4C-637.1,786.2-637.1,786.2-637.1,786.2z"/>
				<path class="st7" d="M-620.5,846.7c-17.4-32.3-16.6-60.5-16.6-60.5C-657,723.3-830.9,667-830.9,667
					c221.1,89.4,182.2,144.1,182.2,144.1c6,3.5,14.9,20.1,21.1,32.8c0.9,2.2,2.3,5.2,4.4,9.2l0,0c0.8,1.8,1.5,3.3,2,4.4
					c11.4,28.5,5.4,77.7,5.4,77.7l6.9,1.9C-593.7,887.4-620.5,846.7-620.5,846.7z"/>
			</g>
			<g>
				<path class="st1" d="M-538.3,738.3c0,0-81.9-45.9-43.7-108.1c0,0,30.6-38.2,63.3-48c0,0-17.5,92.8,0,95
					c17.5,2.2,12-104.8,12-104.8s86.2-41.5,120.1-38.2c0,0-53.5,90.6-36,88.4c17.5-2.2,77.5-93.9,77.5-93.9s88.4-16.4,102.6,36
					c14.2,52.4-8.7,78.6-21.8,81.9c-13.1,3.3-97.2,2.2-95,13.1s59,28.4,90.6,18.6c0,0-34.9,86.2-80.8,81.9
					c-45.9-4.4-60-32.8-88.4-34.9s-49.1,5.5-34.9,13.1c14.2,7.6,62.2,2.5,85.2,22c22.9,19.5,41.5,31.5-1.1,40.2
					c-42.6,8.7-119,3.3-134.3-29.5C-538.3,738.3-538.3,738.3-538.3,738.3z"/>
				<path class="st7" d="M-282.8,581.1c0,0-229.3,74.2-255.5,157.2c0,0,1.1,37.1-21.8,79.7c0,0-35.4,53.7-15.2,119l9.1-2.4
					c0,0-8-64.8,7.1-102.4c0.6-1.4,1.5-3.4,2.6-5.8c0,0,0,0,0,0c2.7-5.4,4.6-9.3,5.7-12.2c8.2-16.8,20-38.6,27.8-43.2
					C-523,771-574.3,699-282.8,581.1z"/>
			</g>
			<path class="st5" d="M-541,1078.7c88.6,0,160.4-71.8,160.4-160.4h-320.8C-701.4,1006.9-629.6,1078.7-541,1078.7z"/>
			<path class="st8" d="M-501.6,1077.5c-6.5,0.8-13.2,1.2-19.9,1.2c-88.6,0-160.4-71.8-160.4-160.4h39.8
				C-642,1000.2-580.8,1067.7-501.6,1077.5z"/>
			<path class="st5" d="M-398.2,1067.7h-285.6c-10.9,0-19.8,8.9-19.8,19.8h325.2C-378.4,1076.6-387.3,1067.7-398.2,1067.7z"/>
			<path class="st4" d="M-379.5,918.3h-324.8c-1.4,0-2.5,1.1-2.5,2.5s1.1,2.5,2.5,2.5h324.8c1.4,0,2.5-1.1,2.5-2.5
				S-378.1,918.3-379.5,918.3z"/>
		</g>
		<g>
			<path class="st9" d="M858.1,73.8c-4.6-0.7-18.7,12.2-18.7,12.2l0,0c-29.9,3.5-73.6,11.4-89.4,14.4c-11.2,2.1-41.2-8.1-70.5-19.8
				c-34.9-14-68.8-30.1-68.8-30.1c-19.3-1-41.3,34.3-2.1,56.8c6,3.4,28.5,9.3,54.4,14.6c0,0,0,0,0,0c35.8,7.4,78,13.8,92.4,11.5
				c16.7-2.6,64-19.9,92.1-33.1v0c0,0,0,0,0.1,0c0.1,0,0.2-0.1,0.3-0.1c1.7-0.8,8.6-3.9,13.2-3.6c5.3,0.3,17-9.3,17.4-11.9
				C878.9,82,862.8,74.5,858.1,73.8z"/>
			<path class="st10" d="M821.6,518.5l-16.5,3.3c0,0-75.4-84.7-87-120.3c-6.2-19-46-27.3-87.6-38c-36.2-9.4-73.7-20.6-91.7-42.6
				c-38.5-47.3,24.2-105.3,24.2-105.3s66.7,39.7,124.3,80.6c40.2,28.6,76,57.9,81.4,74.7C781.8,411.8,809.6,489.5,821.6,518.5z"/>
			<path class="st11" d="M799.6,546.4h9.3c3.1-0.5,5.4-1.4,8.6-1.8c4.8-0.6,7.1,1.3,7.5,1.8c0.1,0.1,0.1,0.1,0.1,0.1h39.4
				c1-1.4,0-4.7-0.9-7.1c-0.6-1.6-2-2.9-3.7-3.4c-4.2-1.2-12.4-2.3-19.9-9.1c-4.2-3.8-20.5-14.1-20.5-14.1l-0.1,0
				c-0.4,0-2.1,0.5-9.4,6.8c-3.8,3.2-10.3-4.5-10.3-4.5s-1.2,1-2.1,2.9c-0.7,1.5-1.3,3.5-0.8,6c0.6,3.5-1.3,10.1-2.8,14.6
				c-0.9,2.7-1.7,4.6-1.7,4.6S791.6,545.4,799.6,546.4z"/>
			<path class="st12" d="M687.4,296.1l-56.8,67.3c-36.2-9.4-73.7-20.6-91.7-42.6c-38.5-47.3,24.2-105.3,24.2-105.3
				S629.8,255.2,687.4,296.1z"/>
			<path class="st10" d="M635.7,261c0,0-4.6,14.4-12,36.2c-9.4,27.5-23.5,66.6-38.7,102.9c-3.3,8-6.8,15.8-10.2,23.4
				c-12.7,27.9-25.6,51.9-37.1,64c-20.5,21.9-70.4,162.4-70.4,162.4l-12.4-3.4c0,0-17.3-120,44.1-188.3c0.7-0.7,1.2-1.6,1.2-2.5
				c0,0,0,0,0,0c0.8-10.1,3.7-55.4,10.1-101.3c1.6-11.3,3.3-22.5,5.3-33.4c0.1-0.7,0.3-1.4,0.4-2.1c9.3-50,18.3-72.2,29.8-83.4
				l84.9,24.2L635.7,261z"/>
			<path class="st11" d="M453.5,667.1h9.3c3.1-0.5,5.4-1.4,8.6-1.8c4.8-0.6,7.1,1.3,7.5,1.8c0.1,0.1,0.1,0.1,0.1,0.1h39.4
				c1-1.4,0-4.7-0.9-7.1c-0.6-1.6-2-2.9-3.7-3.4c-4.2-1.2-12.4-2.3-19.9-9.1c-4.2-3.8-20.5-14.1-20.5-14.1l-0.1,0
				c-0.4,0-2.1,0.5-9.4,6.8c-3.8,3.2-10.3-4.5-10.3-4.5s-1.2,1-2.1,2.9c-0.7,1.5-1.3,3.5-0.8,6c0.6,3.5-1.3,10.1-2.8,14.6
				c-0.9,2.7-1.7,4.6-1.7,4.6S445.6,666.1,453.5,667.1z"/>
			<path class="st13" d="M471.7,97.7c0,0-14.2,34.7-30.6,68.5c-13.8,28.4-29.1,56.2-38.8,62.1c-13.7,8.4-51.4,31.9-75.8,49.5
				c0,0-19.1-0.1-22,3.5c-3,3.7-9.8,20.1-7.8,21.7c2,1.7,17.2,0.9,20.8-2.9c3.2-3.3,10.4-5.7,12.1-6.2c0.1,0,0.2-0.1,0.3-0.1
				c0,0,0.1,0,0.1,0v0c29.7-9.1,76.3-28.2,90.4-37.5c12.1-8,39.1-41.2,60.5-70.7c0,0,0,0,0,0c15.6-21.4,28.3-40.9,30.4-47.4
				C525.4,95.3,485.4,84,471.7,97.7z"/>
			<path class="st14" d="M546-38.5c-1.7-2.5-3.4-4.6-5.1-6.6c2.1,0,4.4-0.2,6.3-0.9c5-2.1,7.3-17.9,6.5-22.6
				c-0.7-4.7-7.7-18.3-16.2-19.6c-8.5-1.4-17.4,8.1-17.4,8.1c1.6-6.8,16-10.8,16-10.8c-29.8,5.5-28.2,25.3-28,27.2
				c-27.2-9.7-43.2,41.6-43.2,41.6l70.5,41.6c0,0,0.2-11.3,6.9-10.6C552.9,10,561.6-15.8,546-38.5z"/>
			<path class="st13" d="M550.5,69.1c-16.2,7.6-37.7-3.4-37.6-3.5c1.4-1.4,0.9-5.5-0.4-11c-1.3-5.7-4.3-13.4-9.8-22.7
				c-1.2-2-2.3-3.9-3.7-6l1.9-0.7l31.4-12.6c0,0,5.1,9.1,10.4,17.5c4.5,6.9,9.2,13.2,11.3,13C554.2,43,575,57.3,550.5,69.1z"/>
			<path class="st9" d="M532.3,15.8c-0.8,11.2-4.6,31.4-19.8,38.9c-1.3-5.7-4.3-13.4-9.8-22.7L532.3,15.8z"/>
			<path class="st13" d="M500.9,44.8c0,0,40.9-16.1,30.5-41.5C521-22.1,519.2-41.2,492.6-32C466-22.8,465-11,466.4-1.7
				C467.8,7.6,490,48.3,500.9,44.8z"/>
			<path class="st14" d="M516.2-2.5c18.9-2.7,24.4-10.3,24.4-10.3s-17.4-5-27.6-22c0,0-21.2-7.2-37,4.8c-1,1.2-1.6,2.7-2,4.4
				c-3.6-1.2-9-0.9-12.2,9.3c-4.7,15.3,12,32.1,12,32.1c4.1-1.1-0.5-14.8-1.2-22.1c-0.5-5.4,2.4-12.2,4-15.5
				c2,2.6,21.9,27.7,46.3,28.7c0,0-12.9-4.5-24.6-13.2C504.2-3.5,510.4-1.7,516.2-2.5z"/>
			<path class="st3" d="M628.5,121.3c-0.3-1.2-0.7-2.5-1.1-3.8c6.1-11.6,9.1-22.1,10.3-31c2.8-18.7-2-30.3-2-30.3
				s-28.4-15.1-40.9-17c-0.1,0-0.1,0-0.2,0c-0.1,0-0.3,0-0.5,0c-12.7-1.7-40.1,3.8-40.1,3.8s5.3,14.1-9.6,23.5
				c-14.9,9.4-30.8-2.4-30.8-2.4c-0.5,0.3-1,0.7-1.5,1.1c0,0,0,0,0,0c0,0-39.2,25.9-42.8,31.8c-3.5,5.9-18.6,35.2-18.6,35.2
				s4.8,24.6,57.8,26.7c4.4,10.6,7.7,20.9,8.8,29.5c4.2,33.4-0.7,59.7,4.2,79.2c4.9,19.5,93.4,8.4,109.4,4.6
				c16-3.8,12.4-20.9,13.6-37.5C646.1,213.8,633.7,139.7,628.5,121.3z"/>
			<path class="st15" d="M637.7,86.6c-1.3,8.9-4.3,19.4-10.4,31.1c-1.4-6.1-7.1-28.6-16.2-38.7C611.1,78.9,626.5,80.3,637.7,86.6z"
				/>
		</g>
		<g>
			<path class="st9" d="M277.5,305.4c0,0,16.5-20,20-22.3c3.5-2.4,19.1-6.5,20-5.7c0.9,0.8,0.9,2-1,3.7c-1.9,1.7-9.3,6-8.2,6.5
				c1.1,0.5,23.3-10.6,26.5-6.9c3.2,3.7-1.8,19.1-10.4,26.4c-8.6,7.4-34.1,10.5-35.7,11.5C275.1,327.4,277.5,305.4,277.5,305.4z"/>
			<path class="st13" d="M-12.6,259.3c0,0,23.7,28.1,53.8,16.3c0,0,6.5-15.7,6.6-27.2c0-1.4,0-2.8,0-4.1c0.2-13,0.6-20.3,0.6-20.3
				s0,0,0,0c-1.4-0.6-46.1-18.9-46-17.4C3.1,241.7-12.6,259.3-12.6,259.3z"/>
			<path class="st9" d="M6.9,214.9c4.3,8,19.1,23.6,41,29.3c0.2-13,0.6-20.3,0.6-20.3s0,0,0,0C47.2,223.6,5.6,212.5,6.9,214.9z"/>
			<path class="st13" d="M57.8,222.6c0,0-50.3,11.8-57.2-19.6c-6.9-31.4-18-51.1,13.8-59.9c31.8-8.9,40.7,1.7,45.5,11.7
				C64.8,164.6,70.7,218.7,57.8,222.6z"/>
			<path class="st16" d="M2.4,211.5c-0.7,0.4-11.5,3.8-32-37.1c-3.2-6.4-5.4-20.3,2.1-32.5c7.5-12.2,34.1-21.9,56.2-26.1
				c22.1-4.2,27.4,8.2,32.6,20.7c5.5,13.1,21.2,23.9,21.2,23.9c-19,10.6-42-4.6-49.9-2.1c-7.9,2.5-10.8,15-11.4,19
				c-0.6,4-1.5,7.4-11.5,3.8c-10-3.6-4.5,14.2-2.9,17.6C6.7,198.8,8.1,207.8,2.4,211.5z"/>
			<g>
				<path class="st14" d="M-127.2,996.3h-30.5c-6.4,0-13.5-6.5-15.3-18.3c-1.8-11.9-14.9-18.3-17.7-28c-2.8-9.7,11.7-23.4,11.7-23.4
					l2.4-3.2l2.5-3.3l24.1,5.7c0,0,0.6,5.8,1,13.2c0.3,5.4,0.4,11.5,0.1,17c-0.7,12.9,3.6,26.9,14.9,29.4
					C-122.5,988-127.2,996.3-127.2,996.3z"/>
				<path class="st14" d="M84.8,996.6H4.1c-0.8-0.2-1.4-0.3-1.7-0.5c-5.4-2.8-3.7-24-3.1-30.6c0.1-1.2,0.2-1.9,0.2-1.9
					s28.4-23.4,32.3-5.5c0.1,0.6,0.3,1.1,0.4,1.6v0c4.9,16.7,27,24.3,39.7,26.5C81.6,987.9,84.1,993.7,84.8,996.6z"/>
				<path class="st17" d="M68.5,529.9c0,0-4.3,53.8-9.4,118.4C52.3,736.1,44,844,43.2,864.4c-1.4,35.5-7.1,92.2-7.1,92.2
					s-13.5,13.5-40.4,7.8c0,0-24-81-30.9-166.8c-0.1-1.4-0.2-2.8-0.3-4.2c-6.4-87.3-16.3-271-16.3-271L68.5,529.9z"/>
				<path class="st18" d="M68.5,529.9c0,0-4.3,53.8-9.4,118.4l-94.4,149.4c-0.1-1.4-0.2-2.8-0.3-4.2c-6.4-87.3-16.3-271-16.3-271
					L68.5,529.9z"/>
				<path class="st17" d="M48.8,536.2c0,0-77.7,194.8-128.8,286.3c-51.1,91.5-67,117.1-67,117.1s-29.3-11.7-31.9-19.7
					c0,0,19.5-176.7,53.7-219.8c19.3-24.3,42-97.4,43.1-122.9c1.1-25.5,6.9-76.1,6.9-76.1L48.8,536.2z"/>
			</g>
			<g>
				<path class="st9" d="M-129,503.8c0,0-2,24.3-3.5,28.1c-1.5,3.7-11.3,15.3-12.4,15.1s-1.8-1.1-1.2-3.4c0.6-2.4,4-9.6,2.9-9.5
					c-1.1,0.2-12.3,20.7-16.8,19.5c-4.5-1.2-8.9-15.7-6.2-26c2.7-10.3,20.7-26.5,21.4-28.1C-139,485.4-129,503.8-129,503.8z"/>
				<path class="st12" d="M-137.4,510c8.6,2.8,10,2.1,10,2.1s41.9-76.2,46.1-83.2c4.2-7,88.9-85.5,88.9-85.5l-21.7-81.1
					c0,0-96.3,124.6-106.6,142.5c-17.2,29.6-27.2,98.2-27.2,98.2S-144.1,507.8-137.4,510z"/>
			</g>
			<path class="st19" d="M84.9,375.3c-0.3,16.7-1.3,35.4-2.6,54.4c-0.1,1.1-0.2,2.3-0.2,3.4c-0.8,11.8-1.7,23.6-2.8,35.1
				c-0.4,4.6-0.9,9.2-1.3,13.7l-0.1,0.6c0,1.7-0.2,3.5-0.4,5.2c-4.2,43.1-8.7,77.2-9.5,77.7c-1,0.7-2.1,1-3.3,0.8
				c-11.3-1.4-45.1,1.1-72.7-4.9c-23.3-4.9-43.4-14.2-64.7-26.8c-2.8-1.7-9.3-6.1-8.7-9.4c0.5-3.6,1.5-8.9,2.7-15.5
				c4.2-22.9,11.4-62.4,13.9-108.6c0.5-8.6,1.2-17.1,2.1-25.5c2.4-21.8,6.2-42.4,11.3-60.8c9.5-34.1,23.4-60.2,40.9-70.4
				c2.3-1.3,14.6,6.5,25.8,13.8c10.4,6.7,21.4,8.5,32,7.6l9.4,10.4c11.4,13.2,23.5,30.8,26.8,55.8c0.2,1.8,0.5,3.8,0.6,5.9
				C85,348,85.2,360.9,84.9,375.3z"/>
			<path class="st12" d="M84.9,375.3c-0.3,16.7-1.3,35.4-2.6,54.4c-0.1,1.1-0.2,2.3-0.2,3.4C17.5,392.7,7.6,318.7,7.6,318.7
				c31.8,1.4,57,8.7,76.5,19.1C85,348,85.2,360.9,84.9,375.3z"/>
			<g>
				<path class="st19" d="M287.3,307.4c-3.3-9-8.5-8.4-8.5-8.4s-96.1,23.9-104.7,25c-8.6,1-103.4-37-103.4-37s-37.3-16.7-54.8-1.5
					C0.7,298.7,0,315.6,3.6,329.7c4.2,16.8,18.5,29.3,35.7,31.5c38.7,4.9,115.9,14.2,132,11.9c36-5,117.6-52.1,117.6-52.1
					S289.9,314.5,287.3,307.4z"/>
			</g>
		</g>
		<g id="man_2_">
			<g>
				<path class="st14" d="M1234.5,483.4c0,0,13.3,12.4,10.7,21.2c-2.6,8.8-14.6,14.6-16.3,25.4s-8.1,16.6-14,16.6s-27.9,0-27.9,0
					s-4.3-7.6,6.1-9.8c10.4-2.3,14.3-14.9,13.7-26.6c-0.7-11.7,1-27.3,1-27.3l22.1-5.2L1234.5,483.4z"/>
				<path class="st14" d="M1068.1,545.1c-1.4,0.7-6.1,1.1-12.6,1.5h-63.2c0.2-1.9,1.7-8.6,12-10.2c11.7-1.9,31.9-8.7,36.4-23.6
					c0.2-0.5,0.3-1,0.4-1.5c3.6-15.9,29.6,4.9,29.6,4.9s0.1,0.6,0.2,1.7C1071.5,523.7,1073.1,542.6,1068.1,545.1z"/>
				<path class="st20" d="M1007.4,118.5c0,0,4,49.3,8.6,108.6c6.3,80.6,13.9,179.5,14.7,198.3c1.3,32.6,6.5,84.6,6.5,84.6
					s12.4,12.4,37.1,7.2c0,0,22-74.3,28.3-153c0.1-1.3,0.2-2.6,0.3-3.9c5.9-80.1,15-248.7,15-248.7L1007.4,118.5z"/>
				<path class="st14" d="M1007.4,118.5c0,0,4,49.3,8.6,108.6l86.6,137.1c0.1-1.3,0.2-2.6,0.3-3.9c5.9-80.1,15-248.7,15-248.7
					L1007.4,118.5z"/>
				<path class="st20" d="M1025.5,124.4c0,0,71.3,178.7,118.1,262.7c46.9,84,61.5,107.4,61.5,107.4s26.9-10.7,29.3-18.1
					c0,0-17.9-162.1-49.3-201.6c-17.7-22.3-38.6-89.3-39.5-112.8c-1-23.4-6.3-69.8-6.3-69.8L1025.5,124.4z"/>
			</g>
			<g>
				<path class="st13" d="M805.6,27.5c0,0-19.3-4.4-22.6-4.2c-3.3,0.2-14.6,5-14.8,5.9c-0.2,0.9,0.4,1.7,2.4,1.8
					c2,0.1,8.4-0.7,8,0.1c-0.4,0.8-19.1,4.4-19.3,8.2c-0.2,3.8,10,10.7,18.6,11.2c8.6,0.5,25.6-9.6,27.1-9.7
					C817.4,39.7,805.6,27.5,805.6,27.5z"/>
				<path class="st18" d="M797.4,32.4c-2.8-8.8-2.1-10.2-2.1-10.2s78.4-42.4,85.5-46.7C888-28.8,969-115,969-115l83,22.8
					c0,0-128.4,97.8-146.8,108.3c-30.4,17.4-100.8,27.3-100.8,27.3S799.5,39.3,797.4,32.4z"/>
			</g>
			<path class="st13" d="M994.1-156.9c0,0-29.1,51.2-57.5,57.9c0,0,1.2-17.2,8.1-28.9c-2.8-3.3-5.3-6.4-7.5-9.2
				c-7.2-9.2-10.6-14.8-10.6-14.8l9.6-25.9l6.5-17.6c3.1,5.7,6.6,10.6,10.2,14.7C971.7-159.3,994.1-156.9,994.1-156.9z"/>
			<path class="st9" d="M953.1-180.7c0,0,3.5,25.6-15.9,43.6c-7.2-9.2-10.6-14.8-10.6-14.8l9.6-25.9
				C946.6-181,953.1-180.7,953.1-180.7z"/>
			<path class="st13" d="M919-148.2c0,0,43.5-16.9,32.5-43.8c-11-26.9-12.7-47.2-41-37.5c-28.2,9.7-29.4,22.1-27.9,32
				C884.1-187.7,907.4-144.5,919-148.2z"/>
			<path class="st17" d="M1143.5,105.7c-17.5,25.2-148.6,58.9-147,41.4c0.6-6.7,1.4-18.4,0-34.4c-0.3-3.7-0.8-7.7-1.4-11.9
				c-3.3-22.9-11.2-52.4-28.9-86.5c-1.3-2.6-2.7-5.1-4.1-7.7c-7.3-13.2-13.5-27.2-18.2-40.8c-9.1-26.2-12.7-51.3-8.2-67.8
				c0-0.1,0-0.2,0.1-0.2c27.4-12.7,38-61.8,38-61.8s93.5,16.8,145.8,141.4C1119.6-22.7,1158.7,83.7,1143.5,105.7z"/>
			<path class="st18" d="M996.4,112.7c-0.3-3.7-0.8-7.7-1.4-11.9c-3.3-22.9-11.2-52.4-28.9-86.5c3-18.4,7.2-33.6,11.8-40.5
				c18.6-27.9,29.5-32.3,29.5-32.3S1035.4,59.4,996.4,112.7z"/>
			<g>
				<path class="st13" d="M849.1,84.7c0,0-25.9,1.4-29.9,2.8c-4,1.4-16.6,11.5-16.5,12.7c0.1,1.2,1.1,2,3.6,1.4
					c2.5-0.5,10.3-3.9,10.1-2.8c-0.2,1.1-22.3,12.4-21.3,17.2c1.1,4.8,16.4,9.9,27.4,7.4c11-2.5,28.7-21.2,30.5-21.8
					C868.2,95.8,849.1,84.7,849.1,84.7z"/>
				<path class="st17" d="M844.2,94.5c-5.2-8.4-1.4-12.2-1.4-12.2s79.9-62.5,86.1-68.9c6.3-6.3,35.3-106.9,35.3-106.9
					s10-40.7,33.4-45.2c20.3-3.9,34.4,6.1,43.5,17.9c10.9,14,12,33.4,2.9,48.7c-20.4,34.4-61.5,102.6-73.5,114.2
					c-26.7,25.9-116.2,62.2-116.2,62.2S848.3,101,844.2,94.5z"/>
			</g>
			<path class="st10" d="M957.7-242c0.3-0.6,1.2-1.2,3.3-1.9c0,0-2-0.7-4.4-0.2c-1.2-3-4.2-8-9.7-8.1c0,0,3.2,0.8,4.4,4
				c-7.6-4.8-21.8-6.2-57,5.5c-46.5,15.5-23.3,42.5-16.2,44.6c7,2.2,20-11.7,31.7-13.6c11.7-1.9,18,14.4,22.4,15.7
				c4.4,1.3,1.9-2.3,6.6-6.1c4.7-3.7,7.3,5,7.2,11.1c-0.1,6.1,9,11.9,9,11.9s0,0,5.3-9.8c5.3-9.8,3.9-45.2-1.2-51.6
				C958.6-240.8,958.2-241.4,957.7-242z"/>
		</g>
		<polygon class="st21" points="223,995.3 223,1047.9 98.4,995.3 		"/>
		<rect x="876.8" y="546.6" class="st2" width="411.8" height="540.9"/>
		<rect x="749.8" y="546.6" class="st3" width="411.8" height="540.9"/>
		<polygon class="st21" points="1288.6,546.6 1288.6,627.5 1161.7,546.6 		"/>
	</g>
</g>
</svg>
